<svg xmlns="http://www.w3.org/2000/svg" width="40" height="40" viewBox="0 0 300 300" fill="currentColor">
<path d="M134.2 193.8C135 194.8 135.1 196.2 134.4 197.3C133.2 199.2 132.1 201.1 131 203C124.7 213.9 119.5 225.4 115.4 237.3C114.8 238.9 112.6 239.1 111.8 237.6C101.3 219 86.4 203.3 68.2 191.7C48.6 179.3 26.2 172.4 2.99998 171.7C1.39998 171.7 0.0999756 170.3 0.0999756 168.7V131.3C0.0999756 129.7 1.39998 128.4 2.99998 128.3C26.2 127.6 48.6 120.7 68.2 108.3C86.3 96.8 101.3 81 111.8 62.4C112.7 60.9 114.9 61.1 115.4 62.7C119.5 74.6 124.7 86.1 131 97C132.1 98.9 133.3 100.8 134.4 102.7C135.1 103.8 135 105.2 134.2 106.2C120.3 123.7 103.5 138.1 84.1 149.1L82.6 150L84.1 150.9C103.5 161.9 120.4 176.3 134.2 193.8Z" />
<path d="M300 131.3V168.7C300 170.3 298.7 171.6 297.1 171.7C228.9 173.8 173.8 228.9 171.7 297.1C171.7 298.7 170.3 300 168.7 300H131.4C129.7 300 128.4 298.6 128.4 297C129.8 236.7 163.1 181 215.8 150.9L217.3 150L215.8 149.1C163 119 129.8 63.3 128.4 3C128.4 1.3 129.7 0 131.4 0H168.7C170.3 0 171.6 1.3 171.7 2.9C173.8 71.1 228.9 126.2 297.1 128.3C298.7 128.3 300 129.7 300 131.3Z" />
</svg>
